<svg xmlns="http://www.w3.org/2000/svg" xmlns:xlink="http://www.w3.org/1999/xlink" width="500" zoomAndPan="magnify" viewBox="0 0 375 374.999991" height="500" preserveAspectRatio="xMidYMid meet" version="1.0"><defs><clipPath id="35e2022420"><path d="M 36.027344 47.765625 L 331 47.765625 L 331 320 L 36.027344 320 Z M 36.027344 47.765625 " clip-rule="nonzero"/></clipPath></defs><g clip-path="url(#35e2022420)"><path fill="#38b6ff" d="M 153.292969 55.816406 C 162.765625 50.332031 173.128906 47.765625 183.375 47.796875 C 193.617188 47.765625 203.984375 50.332031 213.453125 55.816406 C 219.589844 59.363281 224.859375 63.835938 229.210938 68.992188 L 229.359375 69.167969 C 229.507812 69.347656 229.65625 69.527344 229.804688 69.707031 C 231.859375 72.210938 233.765625 74.921875 235.433594 77.84375 L 322.488281 228.734375 C 339.019531 257.410156 329.128906 294.402344 300.480469 310.972656 C 271.828125 327.515625 234.867188 317.589844 218.308594 288.914062 L 203.804688 263.757812 C 191.652344 242.714844 176.253906 209.597656 160.382812 193.886719 C 143.464844 177.195312 120.234375 166.882812 94.621094 166.882812 C 89.378906 166.882812 84.226562 167.328125 79.195312 168.164062 L 125.179688 88.457031 C 128.8125 82.136719 132.296875 75.339844 136.941406 69.707031 C 137.089844 69.527344 137.238281 69.347656 137.390625 69.167969 L 137.539062 68.992188 C 141.886719 63.835938 147.15625 59.363281 153.292969 55.816406 Z M 94.621094 201.964844 C 126.964844 201.964844 153.203125 228.226562 153.203125 260.597656 C 153.203125 293 126.964844 319.230469 94.621094 319.230469 C 62.277344 319.230469 36.039062 293 36.039062 260.597656 C 36.039062 228.226562 62.277344 201.964844 94.621094 201.964844 Z M 94.621094 201.964844 " fill-opacity="1" fill-rule="evenodd"/></g></svg>