<svg xmlns="http://www.w3.org/2000/svg" xmlns:xlink="http://www.w3.org/1999/xlink" width="500" zoomAndPan="magnify" viewBox="0 0 375 374.999991" height="500" preserveAspectRatio="xMidYMid meet" version="1.0"><defs><clipPath id="40d7b8f5d6"><path d="M 49.195312 59.914062 L 319 59.914062 L 319 308 L 49.195312 308 Z M 49.195312 59.914062 " clip-rule="nonzero"/></clipPath></defs><g clip-path="url(#40d7b8f5d6)"><path fill="#38b6ff" d="M 156.300781 67.25 C 164.949219 62.25 174.417969 59.914062 183.773438 59.941406 C 193.132812 59.914062 202.597656 62.25 211.25 67.25 C 216.851562 70.484375 221.667969 74.558594 225.640625 79.257812 L 225.773438 79.421875 C 225.910156 79.585938 226.046875 79.746094 226.183594 79.910156 C 228.058594 82.191406 229.800781 84.664062 231.324219 87.328125 L 310.835938 224.867188 C 325.933594 251.007812 316.902344 284.726562 290.734375 299.832031 C 264.566406 314.914062 230.808594 305.863281 215.683594 279.726562 L 202.433594 256.792969 C 191.335938 237.613281 177.273438 207.425781 162.773438 193.105469 C 147.324219 177.890625 126.105469 168.488281 102.710938 168.488281 C 97.925781 168.488281 93.21875 168.894531 88.621094 169.65625 L 130.621094 97 C 133.941406 91.242188 137.121094 85.046875 141.367188 79.910156 C 141.503906 79.746094 141.636719 79.585938 141.773438 79.421875 L 141.910156 79.257812 C 145.882812 74.558594 150.695312 70.484375 156.300781 67.25 Z M 102.710938 200.46875 C 132.253906 200.46875 156.21875 224.40625 156.21875 253.914062 C 156.21875 283.449219 132.253906 307.359375 102.710938 307.359375 C 73.171875 307.359375 49.203125 283.449219 49.203125 253.914062 C 49.203125 224.40625 73.171875 200.46875 102.710938 200.46875 Z M 102.710938 200.46875 " fill-opacity="1" fill-rule="evenodd"/></g></svg>